<mxfile host="app.diagrams.net" modified="2023-04-01T08:08:21.530Z" agent="Mozilla/5.0 (Windows NT 10.0; Win64; x64) AppleWebKit/537.36 (KHTML, like Gecko) Chrome/110.0.0.0 YaBrowser/23.3.0.2246 Yowser/2.5 Safari/537.36" etag="aLK-h1XSdTXTOely-NzP" version="21.1.2" type="device">
  <diagram name="Страница 1" id="m-R8-UdD9pqbOkppXUDh">
    <mxGraphModel dx="2261" dy="791" grid="1" gridSize="10" guides="1" tooltips="1" connect="1" arrows="1" fold="1" page="1" pageScale="1" pageWidth="827" pageHeight="1169" math="0" shadow="0">
      <root>
        <mxCell id="0" />
        <mxCell id="1" parent="0" />
        <mxCell id="3HfqeH23IKC03-UdpzYW-3" value="" style="edgeStyle=orthogonalEdgeStyle;rounded=0;orthogonalLoop=1;jettySize=auto;html=1;" parent="1" source="3HfqeH23IKC03-UdpzYW-1" target="3HfqeH23IKC03-UdpzYW-2" edge="1">
          <mxGeometry relative="1" as="geometry" />
        </mxCell>
        <mxCell id="3HfqeH23IKC03-UdpzYW-1" value="Start" style="ellipse;whiteSpace=wrap;html=1;" parent="1" vertex="1">
          <mxGeometry x="320" y="230" width="120" height="80" as="geometry" />
        </mxCell>
        <mxCell id="3HfqeH23IKC03-UdpzYW-5" value="" style="edgeStyle=orthogonalEdgeStyle;rounded=0;orthogonalLoop=1;jettySize=auto;html=1;" parent="1" source="3HfqeH23IKC03-UdpzYW-2" edge="1">
          <mxGeometry relative="1" as="geometry">
            <mxPoint x="380" y="430" as="targetPoint" />
          </mxGeometry>
        </mxCell>
        <mxCell id="3HfqeH23IKC03-UdpzYW-2" value="Ввод" style="shape=parallelogram;perimeter=parallelogramPerimeter;whiteSpace=wrap;html=1;fixedSize=1;" parent="1" vertex="1">
          <mxGeometry x="320" y="340" width="120" height="60" as="geometry" />
        </mxCell>
        <mxCell id="BzkUGYfhrrEYvjFubNA_-3" value="" style="edgeStyle=orthogonalEdgeStyle;rounded=0;orthogonalLoop=1;jettySize=auto;html=1;exitX=0.425;exitY=1.038;exitDx=0;exitDy=0;exitPerimeter=0;" parent="1" source="3HfqeH23IKC03-UdpzYW-15" edge="1">
          <mxGeometry relative="1" as="geometry">
            <mxPoint x="380" y="610" as="targetPoint" />
          </mxGeometry>
        </mxCell>
        <mxCell id="3HfqeH23IKC03-UdpzYW-15" value="I =0; i &amp;lt; array ; i++" style="shape=hexagon;perimeter=hexagonPerimeter2;whiteSpace=wrap;html=1;fixedSize=1;" parent="1" vertex="1">
          <mxGeometry x="322.5" y="430" width="137.5" height="80" as="geometry" />
        </mxCell>
        <mxCell id="fLyebX5kuN0oLFkmV-n2-22" style="edgeStyle=orthogonalEdgeStyle;rounded=0;orthogonalLoop=1;jettySize=auto;html=1;" parent="1" source="fLyebX5kuN0oLFkmV-n2-19" target="fLyebX5kuN0oLFkmV-n2-21" edge="1">
          <mxGeometry relative="1" as="geometry" />
        </mxCell>
        <mxCell id="fLyebX5kuN0oLFkmV-n2-19" value="&quot;Результат&quot;" style="shape=document;whiteSpace=wrap;html=1;boundedLbl=1;" parent="1" vertex="1">
          <mxGeometry x="320" y="880" width="120" height="80" as="geometry" />
        </mxCell>
        <mxCell id="fLyebX5kuN0oLFkmV-n2-21" value="End" style="ellipse;whiteSpace=wrap;html=1;" parent="1" vertex="1">
          <mxGeometry x="510" y="880" width="120" height="80" as="geometry" />
        </mxCell>
        <mxCell id="BzkUGYfhrrEYvjFubNA_-6" style="edgeStyle=orthogonalEdgeStyle;rounded=0;orthogonalLoop=1;jettySize=auto;html=1;entryX=0.5;entryY=0;entryDx=0;entryDy=0;" parent="1" source="BzkUGYfhrrEYvjFubNA_-4" target="fLyebX5kuN0oLFkmV-n2-19" edge="1">
          <mxGeometry relative="1" as="geometry">
            <mxPoint x="380" y="830" as="targetPoint" />
          </mxGeometry>
        </mxCell>
        <mxCell id="BzkUGYfhrrEYvjFubNA_-14" style="edgeStyle=orthogonalEdgeStyle;rounded=0;orthogonalLoop=1;jettySize=auto;html=1;exitX=0;exitY=0.5;exitDx=0;exitDy=0;entryX=1;entryY=0.5;entryDx=0;entryDy=0;" parent="1" source="BzkUGYfhrrEYvjFubNA_-4" target="BzkUGYfhrrEYvjFubNA_-11" edge="1">
          <mxGeometry relative="1" as="geometry" />
        </mxCell>
        <mxCell id="BzkUGYfhrrEYvjFubNA_-4" value="&lt;pre style=&quot;font-family: Consolas, &amp;quot;Courier New&amp;quot;, monospace; line-height: 27px;&quot;&gt;&lt;span style=&quot;background-color: rgb(255, 255, 255);&quot;&gt;&lt;font style=&quot;font-size: 12px;&quot;&gt;if (array[i].Length &amp;lt;= 3)&lt;/font&gt;&lt;/span&gt;&lt;/pre&gt;" style="rhombus;whiteSpace=wrap;html=1;" parent="1" vertex="1">
          <mxGeometry x="282.5" y="610" width="195" height="150" as="geometry" />
        </mxCell>
        <mxCell id="BzkUGYfhrrEYvjFubNA_-8" value="Yes" style="text;html=1;strokeColor=none;fillColor=none;align=center;verticalAlign=middle;whiteSpace=wrap;rounded=0;" parent="1" vertex="1">
          <mxGeometry x="384" y="780" width="60" height="30" as="geometry" />
        </mxCell>
        <mxCell id="BzkUGYfhrrEYvjFubNA_-9" value="No" style="text;html=1;strokeColor=none;fillColor=none;align=center;verticalAlign=middle;whiteSpace=wrap;rounded=0;" parent="1" vertex="1">
          <mxGeometry x="222.5" y="650" width="60" height="30" as="geometry" />
        </mxCell>
        <mxCell id="BzkUGYfhrrEYvjFubNA_-17" style="edgeStyle=orthogonalEdgeStyle;rounded=0;orthogonalLoop=1;jettySize=auto;html=1;exitX=0.5;exitY=0;exitDx=0;exitDy=0;entryX=0.5;entryY=1;entryDx=0;entryDy=0;" parent="1" source="BzkUGYfhrrEYvjFubNA_-11" target="BzkUGYfhrrEYvjFubNA_-16" edge="1">
          <mxGeometry relative="1" as="geometry" />
        </mxCell>
        <mxCell id="BzkUGYfhrrEYvjFubNA_-11" value="&lt;br&gt;&lt;div style=&quot;border-color: var(--border-color); font-family: Consolas, &amp;quot;Courier New&amp;quot;, monospace; line-height: 27px;&quot;&gt;&lt;div style=&quot;border-color: var(--border-color);&quot;&gt;&lt;font style=&quot;border-color: var(--border-color);&quot; color=&quot;#121212&quot;&gt;&lt;br&gt;&lt;/font&gt;&lt;/div&gt;&lt;div style=&quot;border-color: var(--border-color);&quot;&gt;&lt;font style=&quot;border-color: var(--border-color);&quot; color=&quot;#121212&quot;&gt;newArray[&lt;span style=&quot;border-color: var(--border-color);&quot;&gt;j&lt;/span&gt;&lt;span style=&quot;border-color: var(--border-color);&quot;&gt;] =&amp;nbsp;&lt;/span&gt;&lt;span style=&quot;border-color: var(--border-color);&quot;&gt;array&lt;/span&gt;&lt;span style=&quot;border-color: var(--border-color);&quot;&gt;[&lt;/span&gt;&lt;span style=&quot;border-color: var(--border-color);&quot;&gt;i&lt;/span&gt;&lt;span style=&quot;border-color: var(--border-color);&quot;&gt;];&lt;/span&gt;&lt;/font&gt;&lt;/div&gt;&lt;div style=&quot;border-color: var(--border-color);&quot;&gt;&lt;font style=&quot;border-color: var(--border-color);&quot; color=&quot;#121212&quot;&gt;&lt;span style=&quot;border-color: var(--border-color);&quot;&gt;&amp;nbsp;&lt;/span&gt;&lt;/font&gt;&lt;/div&gt;&lt;/div&gt;&lt;font style=&quot;border-color: var(--border-color);&quot;&gt;&lt;br style=&quot;border-color: var(--border-color); background-color: rgb(255, 255, 255);&quot;&gt;&lt;/font&gt;" style="rhombus;whiteSpace=wrap;html=1;" parent="1" vertex="1">
          <mxGeometry x="-5" y="700" width="180" height="140" as="geometry" />
        </mxCell>
        <mxCell id="BzkUGYfhrrEYvjFubNA_-19" style="edgeStyle=orthogonalEdgeStyle;rounded=0;orthogonalLoop=1;jettySize=auto;html=1;entryX=0.5;entryY=0;entryDx=0;entryDy=0;" parent="1" source="BzkUGYfhrrEYvjFubNA_-16" target="BzkUGYfhrrEYvjFubNA_-4" edge="1">
          <mxGeometry relative="1" as="geometry" />
        </mxCell>
        <mxCell id="BzkUGYfhrrEYvjFubNA_-16" value="&amp;nbsp;index&lt;span style=&quot;border-color: var(--border-color); color: rgb(18, 18, 18); font-family: Consolas, &amp;quot;Courier New&amp;quot;, monospace;&quot;&gt;++;&lt;/span&gt;" style="rounded=0;whiteSpace=wrap;html=1;" parent="1" vertex="1">
          <mxGeometry x="25" y="560" width="120" height="50" as="geometry" />
        </mxCell>
      </root>
    </mxGraphModel>
  </diagram>
</mxfile>
